<svg xmlns="http://www.w3.org/2000/svg" xmlns:xlink="http://www.w3.org/1999/xlink" width="176" zoomAndPan="magnify" viewBox="0 0 132 30.000001" height="40" preserveAspectRatio="xMidYMid meet" version="1.0"><defs><g><g id="id1"/></g></defs><path fill="rgb(100%, 100%, 100%)" d="M 42.902344 6.597656 L 8.726562 6.597656 L 8.726562 22.433594 L 123.273438 22.433594 L 123.273438 6.597656 L 42.902344 6.597656 M 89.097656 2.902344 L 5.03125 2.902344 L 5.03125 26.128906 L 126.96875 26.128906 L 126.96875 2.902344 L 89.097656 2.902344 M 126.371094 16.011719 L 126.371094 25.53125 L 5.628906 25.53125 L 5.628906 3.5 L 126.371094 3.5 L 126.371094 16.011719 " fill-opacity="1" fill-rule="nonzero"/><g fill="rgb(0%, 0%, 0%)" fill-opacity="1"><g transform="translate(34.681758, 14.550102)"><g><path d="M 4.105469 0 L 6.121094 0 L 6.121094 -0.0859375 L 3.542969 -3.351562 L 5.902344 -6.570312 L 5.902344 -6.664062 L 3.972656 -6.664062 L 2.125 -4.074219 L 2.125 -6.664062 L 0.496094 -6.664062 L 0.496094 0 L 2.125 0 L 2.125 -2.582031 Z M 4.105469 0 "/></g></g></g><g fill="rgb(0%, 0%, 0%)" fill-opacity="1"><g transform="translate(44.590285, 14.550102)"><g><path d="M 2.742188 -6.742188 L 0.078125 0 L 1.820312 0 L 2.191406 -0.980469 L 4.464844 -0.980469 L 4.835938 0 L 6.675781 0 L 3.902344 -6.742188 Z M 3.332031 -4.054688 L 3.847656 -2.609375 L 3.886719 -2.496094 L 2.78125 -2.496094 L 2.835938 -2.648438 Z M 3.332031 -4.054688 "/></g></g></g><g fill="rgb(0%, 0%, 0%)" fill-opacity="1"><g transform="translate(54.898428, 14.550102)"><g><path d="M 5.53125 -6.742188 L 0.3125 -6.742188 L 0.3125 -5.21875 L 2.113281 -5.21875 L 2.113281 0 L 3.742188 0 L 3.742188 -5.21875 L 5.53125 -5.21875 Z M 5.53125 -6.742188 "/></g></g></g><g fill="rgb(0%, 0%, 0%)" fill-opacity="1"><g transform="translate(64.511986, 14.550102)"><g><path d="M 0.476562 -6.722656 L 0.476562 0 L 4.875 0 L 4.875 -1.570312 L 2.113281 -1.570312 L 2.113281 -2.636719 L 4.808594 -2.636719 L 4.808594 -4.21875 L 2.113281 -4.21875 L 2.113281 -5.152344 L 4.867188 -5.152344 L 4.867188 -6.722656 Z M 0.476562 -6.722656 "/></g></g></g><g fill="rgb(0%, 0%, 0%)" fill-opacity="1"><g transform="translate(73.469011, 14.550102)"><g><path d="M 3.066406 -6.722656 L 0.476562 -6.722656 L 0.476562 0 L 2.09375 0 L 2.09375 -2.257812 L 2.363281 -2.257812 L 3.75 0 L 5.484375 0 L 5.484375 -0.304688 L 4.054688 -2.417969 C 4.933594 -2.835938 5.359375 -3.695312 5.359375 -4.503906 C 5.359375 -5.609375 4.589844 -6.722656 3.066406 -6.722656 Z M 3.027344 -3.734375 L 2.09375 -3.734375 L 2.09375 -5.160156 L 3.027344 -5.160156 C 3.523438 -5.160156 3.769531 -4.789062 3.769531 -4.4375 C 3.769531 -4.09375 3.515625 -3.734375 3.027344 -3.734375 Z M 3.027344 -3.734375 "/></g></g></g><g fill="rgb(0%, 0%, 0%)" fill-opacity="1"><g transform="translate(82.901792, 14.550102)"><g><path d="M 4.246094 0 L 4.246094 -1.457031 L 3.140625 -1.457031 L 3.140625 -5.21875 L 4.246094 -5.21875 L 4.246094 -6.703125 L 0.410156 -6.703125 L 0.410156 -5.21875 L 1.515625 -5.21875 L 1.515625 -1.457031 L 0.410156 -1.457031 L 0.410156 0 Z M 4.246094 0 "/></g></g></g><g fill="rgb(0%, 0%, 0%)" fill-opacity="1"><g transform="translate(91.154718, 14.550102)"><g><path d="M 4.039062 -6.664062 L 4.039062 -3.332031 L 1.734375 -6.664062 L 0.476562 -6.664062 L 0.476562 0 L 2.09375 0 L 2.09375 -3.246094 L 4.371094 0 L 5.648438 0 L 5.648438 -6.664062 Z M 4.039062 -6.664062 "/></g></g></g><g fill="rgb(47.44873%, 83.918762%, 52.549744%)" fill-opacity="1"><g transform="translate(20.028471, 20.644009)"><g><path d="M 0.9375 -2.171875 L 0.9375 -1.46875 L 2.15625 -1.46875 L 2.15625 -0.96875 L 0.9375 -0.96875 L 0.9375 0 L 0.3125 0 L 0.3125 -2.65625 L 2.328125 -2.65625 L 2.328125 -2.171875 Z M 0.9375 -2.171875 "/></g></g></g><g fill="rgb(47.44873%, 83.918762%, 52.549744%)" fill-opacity="1"><g transform="translate(25.105048, 20.644009)"><g><path d="M 2.015625 0 L 1.5 -0.734375 L 0.9375 -0.734375 L 0.9375 0 L 0.3125 0 L 0.3125 -2.65625 L 1.46875 -2.65625 C 1.695312 -2.65625 1.898438 -2.613281 2.078125 -2.53125 C 2.253906 -2.457031 2.390625 -2.347656 2.484375 -2.203125 C 2.578125 -2.054688 2.625 -1.882812 2.625 -1.6875 C 2.625 -1.488281 2.570312 -1.316406 2.46875 -1.171875 C 2.375 -1.035156 2.242188 -0.929688 2.078125 -0.859375 L 2.671875 0 Z M 2 -1.6875 C 2 -1.84375 1.945312 -1.957031 1.84375 -2.03125 C 1.75 -2.113281 1.613281 -2.15625 1.4375 -2.15625 L 0.9375 -2.15625 L 0.9375 -1.234375 L 1.4375 -1.234375 C 1.613281 -1.234375 1.75 -1.269531 1.84375 -1.34375 C 1.945312 -1.425781 2 -1.539062 2 -1.6875 Z M 2 -1.6875 "/></g></g></g><g fill="rgb(47.44873%, 83.918762%, 52.549744%)" fill-opacity="1"><g transform="translate(30.546136, 20.644009)"><g><path d="M 1.609375 0.046875 C 1.328125 0.046875 1.078125 -0.0078125 0.859375 -0.125 C 0.640625 -0.25 0.460938 -0.414062 0.328125 -0.625 C 0.203125 -0.832031 0.140625 -1.066406 0.140625 -1.328125 C 0.140625 -1.585938 0.203125 -1.820312 0.328125 -2.03125 C 0.460938 -2.238281 0.640625 -2.398438 0.859375 -2.515625 C 1.078125 -2.640625 1.328125 -2.703125 1.609375 -2.703125 C 1.878906 -2.703125 2.125 -2.640625 2.34375 -2.515625 C 2.5625 -2.398438 2.734375 -2.238281 2.859375 -2.03125 C 2.992188 -1.820312 3.0625 -1.585938 3.0625 -1.328125 C 3.0625 -1.066406 2.992188 -0.832031 2.859375 -0.625 C 2.734375 -0.414062 2.5625 -0.25 2.34375 -0.125 C 2.125 -0.0078125 1.878906 0.046875 1.609375 0.046875 Z M 1.609375 -0.484375 C 1.765625 -0.484375 1.90625 -0.515625 2.03125 -0.578125 C 2.15625 -0.648438 2.253906 -0.75 2.328125 -0.875 C 2.398438 -1.007812 2.4375 -1.160156 2.4375 -1.328125 C 2.4375 -1.492188 2.398438 -1.640625 2.328125 -1.765625 C 2.253906 -1.898438 2.15625 -2 2.03125 -2.0625 C 1.90625 -2.132812 1.765625 -2.171875 1.609375 -2.171875 C 1.441406 -2.171875 1.296875 -2.132812 1.171875 -2.0625 C 1.046875 -2 0.945312 -1.898438 0.875 -1.765625 C 0.800781 -1.640625 0.765625 -1.492188 0.765625 -1.328125 C 0.765625 -1.160156 0.800781 -1.007812 0.875 -0.875 C 0.945312 -0.75 1.046875 -0.648438 1.171875 -0.578125 C 1.296875 -0.515625 1.441406 -0.484375 1.609375 -0.484375 Z M 1.609375 -0.484375 "/></g></g></g><g fill="rgb(47.44873%, 83.918762%, 52.549744%)" fill-opacity="1"><g transform="translate(36.401094, 20.644009)"><g><path d="M 2.75 -2.65625 L 2.75 0 L 2.25 0 L 0.921875 -1.609375 L 0.921875 0 L 0.3125 0 L 0.3125 -2.65625 L 0.828125 -2.65625 L 2.140625 -1.046875 L 2.140625 -2.65625 Z M 2.75 -2.65625 "/></g></g></g><g fill="rgb(47.44873%, 83.918762%, 52.549744%)" fill-opacity="1"><g transform="translate(42.119364, 20.644009)"><g><path d="M 0.859375 -2.15625 L 0.015625 -2.15625 L 0.015625 -2.65625 L 2.328125 -2.65625 L 2.328125 -2.15625 L 1.484375 -2.15625 L 1.484375 0 L 0.859375 0 Z M 0.859375 -2.15625 "/></g></g></g><g fill="rgb(47.44873%, 83.918762%, 52.549744%)" fill-opacity="1"><g transform="translate(47.1162, 20.644009)"><g><path d="M 2.375 -0.5 L 2.375 0 L 0.3125 0 L 0.3125 -2.65625 L 2.328125 -2.65625 L 2.328125 -2.171875 L 0.921875 -2.171875 L 0.921875 -1.59375 L 2.15625 -1.59375 L 2.15625 -1.109375 L 0.921875 -1.109375 L 0.921875 -0.5 Z M 2.375 -0.5 "/></g></g></g><g fill="rgb(47.44873%, 83.918762%, 52.549744%)" fill-opacity="1"><g transform="translate(52.31428, 20.644009)"><g><path d="M 2.75 -2.65625 L 2.75 0 L 2.25 0 L 0.921875 -1.609375 L 0.921875 0 L 0.3125 0 L 0.3125 -2.65625 L 0.828125 -2.65625 L 2.140625 -1.046875 L 2.140625 -2.65625 Z M 2.75 -2.65625 "/></g></g></g><g fill="rgb(47.44873%, 83.918762%, 52.549744%)" fill-opacity="1"><g transform="translate(58.03255, 20.644009)"><g><path d="M 0.3125 -2.65625 L 1.515625 -2.65625 C 1.804688 -2.65625 2.0625 -2.597656 2.28125 -2.484375 C 2.507812 -2.378906 2.679688 -2.226562 2.796875 -2.03125 C 2.921875 -1.832031 2.984375 -1.597656 2.984375 -1.328125 C 2.984375 -1.066406 2.921875 -0.832031 2.796875 -0.625 C 2.679688 -0.425781 2.507812 -0.269531 2.28125 -0.15625 C 2.0625 -0.0507812 1.804688 0 1.515625 0 L 0.3125 0 Z M 1.484375 -0.5 C 1.753906 -0.5 1.96875 -0.570312 2.125 -0.71875 C 2.28125 -0.875 2.359375 -1.078125 2.359375 -1.328125 C 2.359375 -1.578125 2.28125 -1.773438 2.125 -1.921875 C 1.96875 -2.078125 1.753906 -2.15625 1.484375 -2.15625 L 0.9375 -2.15625 L 0.9375 -0.5 Z M 1.484375 -0.5 "/></g></g></g><g fill="rgb(47.44873%, 83.918762%, 52.549744%)" fill-opacity="1"><g transform="translate(63.819162, 20.644009)"><g/></g></g><g fill="rgb(47.44873%, 83.918762%, 52.549744%)" fill-opacity="1"><g transform="translate(67.544006, 20.644009)"><g><path d="M 0.3125 -2.65625 L 1.515625 -2.65625 C 1.804688 -2.65625 2.0625 -2.597656 2.28125 -2.484375 C 2.507812 -2.378906 2.679688 -2.226562 2.796875 -2.03125 C 2.921875 -1.832031 2.984375 -1.597656 2.984375 -1.328125 C 2.984375 -1.066406 2.921875 -0.832031 2.796875 -0.625 C 2.679688 -0.425781 2.507812 -0.269531 2.28125 -0.15625 C 2.0625 -0.0507812 1.804688 0 1.515625 0 L 0.3125 0 Z M 1.484375 -0.5 C 1.753906 -0.5 1.96875 -0.570312 2.125 -0.71875 C 2.28125 -0.875 2.359375 -1.078125 2.359375 -1.328125 C 2.359375 -1.578125 2.28125 -1.773438 2.125 -1.921875 C 1.96875 -2.078125 1.753906 -2.15625 1.484375 -2.15625 L 0.9375 -2.15625 L 0.9375 -0.5 Z M 1.484375 -0.5 "/></g></g></g><g fill="rgb(47.44873%, 83.918762%, 52.549744%)" fill-opacity="1"><g transform="translate(73.330616, 20.644009)"><g><path d="M 2.375 -0.5 L 2.375 0 L 0.3125 0 L 0.3125 -2.65625 L 2.328125 -2.65625 L 2.328125 -2.171875 L 0.921875 -2.171875 L 0.921875 -1.59375 L 2.15625 -1.59375 L 2.15625 -1.109375 L 0.921875 -1.109375 L 0.921875 -0.5 Z M 2.375 -0.5 "/></g></g></g><g fill="rgb(47.44873%, 83.918762%, 52.549744%)" fill-opacity="1"><g transform="translate(78.528698, 20.644009)"><g><path d="M 2.875 -2.65625 L 1.71875 0 L 1.109375 0 L -0.03125 -2.65625 L 0.625 -2.65625 L 1.4375 -0.765625 L 2.265625 -2.65625 Z M 2.875 -2.65625 "/></g></g></g><g fill="rgb(47.44873%, 83.918762%, 52.549744%)" fill-opacity="1"><g transform="translate(84.011553, 20.644009)"><g><path d="M 2.375 -0.5 L 2.375 0 L 0.3125 0 L 0.3125 -2.65625 L 2.328125 -2.65625 L 2.328125 -2.171875 L 0.921875 -2.171875 L 0.921875 -1.59375 L 2.15625 -1.59375 L 2.15625 -1.109375 L 0.921875 -1.109375 L 0.921875 -0.5 Z M 2.375 -0.5 "/></g></g></g><g fill="rgb(47.44873%, 83.918762%, 52.549744%)" fill-opacity="1"><g transform="translate(89.209635, 20.644009)"><g><path d="M 0.3125 -2.65625 L 0.9375 -2.65625 L 0.9375 -0.5 L 2.265625 -0.5 L 2.265625 0 L 0.3125 0 Z M 0.3125 -2.65625 "/></g></g></g><g fill="rgb(47.44873%, 83.918762%, 52.549744%)" fill-opacity="1"><g transform="translate(94.153316, 20.644009)"><g><path d="M 1.609375 0.046875 C 1.328125 0.046875 1.078125 -0.0078125 0.859375 -0.125 C 0.640625 -0.25 0.460938 -0.414062 0.328125 -0.625 C 0.203125 -0.832031 0.140625 -1.066406 0.140625 -1.328125 C 0.140625 -1.585938 0.203125 -1.820312 0.328125 -2.03125 C 0.460938 -2.238281 0.640625 -2.398438 0.859375 -2.515625 C 1.078125 -2.640625 1.328125 -2.703125 1.609375 -2.703125 C 1.878906 -2.703125 2.125 -2.640625 2.34375 -2.515625 C 2.5625 -2.398438 2.734375 -2.238281 2.859375 -2.03125 C 2.992188 -1.820312 3.0625 -1.585938 3.0625 -1.328125 C 3.0625 -1.066406 2.992188 -0.832031 2.859375 -0.625 C 2.734375 -0.414062 2.5625 -0.25 2.34375 -0.125 C 2.125 -0.0078125 1.878906 0.046875 1.609375 0.046875 Z M 1.609375 -0.484375 C 1.765625 -0.484375 1.90625 -0.515625 2.03125 -0.578125 C 2.15625 -0.648438 2.253906 -0.75 2.328125 -0.875 C 2.398438 -1.007812 2.4375 -1.160156 2.4375 -1.328125 C 2.4375 -1.492188 2.398438 -1.640625 2.328125 -1.765625 C 2.253906 -1.898438 2.15625 -2 2.03125 -2.0625 C 1.90625 -2.132812 1.765625 -2.171875 1.609375 -2.171875 C 1.441406 -2.171875 1.296875 -2.132812 1.171875 -2.0625 C 1.046875 -2 0.945312 -1.898438 0.875 -1.765625 C 0.800781 -1.640625 0.765625 -1.492188 0.765625 -1.328125 C 0.765625 -1.160156 0.800781 -1.007812 0.875 -0.875 C 0.945312 -0.75 1.046875 -0.648438 1.171875 -0.578125 C 1.296875 -0.515625 1.441406 -0.484375 1.609375 -0.484375 Z M 1.609375 -0.484375 "/></g></g></g><g fill="rgb(47.44873%, 83.918762%, 52.549744%)" fill-opacity="1"><g transform="translate(100.008272, 20.644009)"><g><path d="M 1.46875 -2.65625 C 1.695312 -2.65625 1.898438 -2.613281 2.078125 -2.53125 C 2.253906 -2.457031 2.390625 -2.347656 2.484375 -2.203125 C 2.578125 -2.054688 2.625 -1.882812 2.625 -1.6875 C 2.625 -1.5 2.578125 -1.332031 2.484375 -1.1875 C 2.390625 -1.039062 2.253906 -0.925781 2.078125 -0.84375 C 1.898438 -0.769531 1.695312 -0.734375 1.46875 -0.734375 L 0.9375 -0.734375 L 0.9375 0 L 0.3125 0 L 0.3125 -2.65625 Z M 1.4375 -1.234375 C 1.613281 -1.234375 1.75 -1.269531 1.84375 -1.34375 C 1.945312 -1.425781 2 -1.539062 2 -1.6875 C 2 -1.84375 1.945312 -1.957031 1.84375 -2.03125 C 1.75 -2.113281 1.613281 -2.15625 1.4375 -2.15625 L 0.9375 -2.15625 L 0.9375 -1.234375 Z M 1.4375 -1.234375 "/></g></g></g><g fill="rgb(47.44873%, 83.918762%, 52.549744%)" fill-opacity="1"><g transform="translate(105.437968, 20.644009)"><g><path d="M 2.375 -0.5 L 2.375 0 L 0.3125 0 L 0.3125 -2.65625 L 2.328125 -2.65625 L 2.328125 -2.171875 L 0.921875 -2.171875 L 0.921875 -1.59375 L 2.15625 -1.59375 L 2.15625 -1.109375 L 0.921875 -1.109375 L 0.921875 -0.5 Z M 2.375 -0.5 "/></g></g></g><g fill="rgb(47.44873%, 83.918762%, 52.549744%)" fill-opacity="1"><g transform="translate(110.636051, 20.644009)"><g><path d="M 2.015625 0 L 1.5 -0.734375 L 0.9375 -0.734375 L 0.9375 0 L 0.3125 0 L 0.3125 -2.65625 L 1.46875 -2.65625 C 1.695312 -2.65625 1.898438 -2.613281 2.078125 -2.53125 C 2.253906 -2.457031 2.390625 -2.347656 2.484375 -2.203125 C 2.578125 -2.054688 2.625 -1.882812 2.625 -1.6875 C 2.625 -1.488281 2.570312 -1.316406 2.46875 -1.171875 C 2.375 -1.035156 2.242188 -0.929688 2.078125 -0.859375 L 2.671875 0 Z M 2 -1.6875 C 2 -1.84375 1.945312 -1.957031 1.84375 -2.03125 C 1.75 -2.113281 1.613281 -2.15625 1.4375 -2.15625 L 0.9375 -2.15625 L 0.9375 -1.234375 L 1.4375 -1.234375 C 1.613281 -1.234375 1.75 -1.269531 1.84375 -1.34375 C 1.945312 -1.425781 2 -1.539062 2 -1.6875 Z M 2 -1.6875 "/></g></g></g></svg>